<svg width="41" height="15" viewBox="0 0 41 15" fill="none" xmlns="http://www.w3.org/2000/svg">
<path fill-rule="evenodd" clip-rule="evenodd" d="M0.251953 1.98192H2.53116V13.8734H4.71128V1.98192H6.80737V13.8734H8.98749V7.92768H9.74062C10.2427 7.92768 10.5928 8.05321 10.791 8.30425C11.0024 8.55529 11.1081 8.99792 11.1081 9.63214V12.169C11.1081 12.6843 11.1214 13.041 11.1478 13.2392C11.1742 13.4374 11.2271 13.6488 11.3063 13.8734H13.5261C13.4204 13.6356 13.3543 13.3978 13.3279 13.16C13.3015 12.9089 13.2883 12.5852 13.2883 12.1888V9.75105C13.2883 8.93186 13.1759 8.27782 12.9513 7.78895C12.7399 7.30008 12.37 6.97636 11.8415 6.81781V6.77817C12.7928 6.395 13.2684 5.48331 13.2684 4.04312V3.19089C13.2684 2.10744 13.0108 1.30807 12.4955 0.792769C11.9802 0.264256 11.161 0 10.0379 0H6.99048H6.80737H0.251953V1.98192ZM9.78025 5.94576C10.2163 5.94576 10.54 5.83345 10.7514 5.60884C10.976 5.38422 11.0883 5.00765 11.0883 4.47914V3.4089C11.0883 2.90682 10.9958 2.54347 10.8109 2.31885C10.6391 2.09423 10.3616 1.98192 9.97845 1.98192H8.98749V5.94576H9.78025ZM19.4385 0H16.4855L14.2261 13.8734H16.2476L16.644 11.1582H19.1214V11.1186L19.5178 13.8734H21.6979L19.4385 0ZM17.8926 2.41794L18.8638 9.27539H16.9017L17.853 2.41794H17.8926ZM20.585 0H22.7849L24.377 7.4322V7.22575V0H26.6776V14.8644H24.377V13.8734H22.6858L20.585 0ZM33.6433 0H27.6975V13.8734H33.6433V11.8915H29.8776V7.6304H32.8703V5.64847H29.8776V1.98192H33.6433V0ZM36.6647 0H34.4846V13.8734H40.252V11.8915H36.6647V0Z" fill="white"/>
</svg>
