<?xml version="1.0" standalone="no"?>
<!DOCTYPE svg PUBLIC "-//W3C//DTD SVG 20010904//EN"
 "http://www.w3.org/TR/2001/REC-SVG-20010904/DTD/svg10.dtd">
<svg version="1.0" xmlns="http://www.w3.org/2000/svg"
 width="10em" height="9em" viewBox="0 0 300.000000 128.000000"
 preserveAspectRatio="xMidYMid meet">
<metadata>
Created by potrace 1.10, written by Peter Selinger 2001-2011
</metadata>
<g transform="translate(0.000000,128.000000) scale(0.100000,-0.100000)"
fill="#000000" stroke="none">
<path d="M405 1065 c-38 -7 -88 -20 -110 -29 -49 -21 -113 -80 -131 -123 -31
-71 -4 -170 57 -213 43 -32 132 -39 178 -15 43 22 34 30 -17 14 -137 -41 -244
105 -162 221 30 42 105 77 192 91 130 20 385 -7 381 -41 0 -8 -22 -87 -48
-175 -116 -397 -124 -534 -33 -581 26 -13 38 -14 69 -5 40 12 69 43 69 73 0
31 -22 31 -47 -1 -13 -17 -33 -31 -43 -31 -36 0 -43 25 -37 128 4 80 17 137
71 326 37 126 70 235 74 242 5 9 47 -9 162 -72 172 -93 231 -118 332 -139 129
-28 302 -13 413 35 67 29 54 41 -17 17 -51 -17 -89 -21 -203 -21 -195 -1 -254
18 -501 160 -230 133 -439 178 -649 139z"/>
<path d="M1884 1061 c3 -5 33 -26 66 -47 33 -22 60 -43 59 -49 0 -5 -25 -30
-56 -54 -53 -42 -57 -43 -91 -33 -45 14 -54 6 -23 -17 13 -10 21 -23 17 -30
-4 -6 -1 -11 9 -11 9 0 18 -12 22 -31 7 -37 20 -26 25 21 3 30 10 38 62 67 33
19 64 32 70 30 6 -2 18 -35 27 -73 9 -38 20 -68 25 -67 5 2 10 46 12 98 3 94
3 95 36 120 70 53 51 90 -25 49 l-46 -26 -79 31 c-78 31 -120 39 -110 22z"/>
<path d="M2423 990 c-82 -50 -137 -288 -115 -495 8 -73 7 -85 -15 -135 -34
-77 -77 -120 -123 -120 -19 0 -46 7 -58 16 -26 18 -52 65 -52 94 0 16 6 20 36
20 52 0 102 27 135 73 38 53 38 90 -1 129 -28 28 -36 30 -80 26 -32 -3 -61
-14 -84 -31 -40 -31 -86 -117 -86 -162 0 -54 -51 -81 -101 -55 -19 11 -19 11
1 50 22 44 26 110 8 128 -16 16 -50 15 -73 -2 -23 -16 -33 -112 -15 -145 10
-19 8 -28 -15 -62 -66 -94 -80 -79 -80 84 l0 122 -30 3 -31 3 -12 -74 c-17
-98 -60 -170 -100 -165 -27 3 -27 4 -30 86 -3 79 -4 83 -24 80 -21 -3 -23 -7
-42 -90 -3 -14 -18 -40 -32 -57 -31 -37 -81 -42 -108 -12 -75 83 34 336 128
293 31 -14 40 -53 21 -98 -20 -47 -10 -57 21 -21 35 41 34 108 -2 136 -33 26
-88 27 -134 3 -50 -27 -107 -112 -120 -180 -18 -91 -40 -133 -78 -149 -70 -29
-80 6 -27 94 52 86 44 143 -20 159 -15 4 -22 11 -18 20 3 8 -2 25 -11 39 -18
27 -63 34 -84 13 -25 -25 -8 -77 30 -91 20 -7 -19 -73 -66 -113 -34 -29 -37
-34 -21 -40 14 -6 31 6 72 50 29 31 53 64 53 72 0 21 24 12 28 -11 2 -9 -13
-53 -33 -97 l-38 -80 20 -26 c18 -24 27 -27 76 -27 48 0 60 5 87 30 30 29 30
29 45 8 37 -52 162 -58 213 -10 27 26 28 26 40 7 29 -47 103 -29 137 34 20 38
35 32 35 -14 0 -14 9 -40 20 -58 29 -48 58 -43 114 19 25 28 46 55 46 59 0 5
18 1 40 -7 33 -13 47 -14 78 -5 32 11 38 10 47 -5 23 -40 74 -82 112 -93 81
-25 159 15 202 102 17 35 21 38 26 22 29 -89 70 -124 148 -124 64 0 95 18 157
89 63 73 107 96 166 87 24 -3 44 -2 44 3 0 34 -104 44 -162 16 -18 -10 -58
-41 -88 -71 -59 -57 -116 -79 -157 -61 -28 12 -50 59 -58 124 -6 45 -3 63 33
154 74 190 113 313 115 362 2 42 -2 52 -26 73 -34 29 -43 30 -84 4z m69 -35
c8 -18 8 -39 0 -78 -12 -60 -100 -306 -115 -322 -15 -16 2 191 24 287 19 81
48 138 70 138 5 0 14 -11 21 -25z m-291 -406 c29 -54 -39 -149 -107 -149 -31
0 -34 3 -34 29 0 97 105 186 141 120z m-342 -66 c0 -10 -4 -27 -9 -38 -7 -16
-9 -13 -9 18 -1 20 4 37 9 37 6 0 10 -8 9 -17z"/>
</g>
</svg>
